<svg xmlns="http://www.w3.org/2000/svg" xmlns:xlink="http://www.w3.org/1999/xlink" width="40.001" height="40.001" viewBox="0 0 40.001 40.001">
  <defs>
    <clipPath id="clip-path">
      <rect id="사각형_21500" data-name="사각형 21500" width="40" height="40" rx="5" transform="translate(0.001 0)" fill="none"/>
    </clipPath>
  </defs>
  <g id="그룹_89152" data-name="그룹 89152" transform="translate(0 0.001)">
    <rect id="사각형_21499" data-name="사각형 21499" width="40" height="40" rx="5" transform="translate(0 -0.001)" fill="#ffb4b4"/>
    <g id="그룹_61086" data-name="그룹 61086" transform="translate(0 0)">
      <g id="그룹_61085" data-name="그룹 61085" transform="translate(0 0)" clip-path="url(#clip-path)">
        <g id="그룹_61092" data-name="그룹 61092" transform="translate(0.001 2.75)">
          <path id="패스_35863" data-name="패스 35863" d="M1348.938,68.246a14.013,14.013,0,0,0-.015,7.487s-3.639-.355-3.966.582,1.342,1.077,3.9,1.1c3.86.028,3.476-.8,3.106-2.344s-.514-4.554.194-5.623" transform="translate(-1333.536 -35.148)" fill="#e9616d" stroke="#000" stroke-linecap="round" stroke-linejoin="round" stroke-width="1"/>
          <path id="패스_35864" data-name="패스 35864" d="M1361.487,68.246a14.021,14.021,0,0,1,.015,7.487s3.639-.355,3.967.582-1.342,1.077-3.9,1.1c-3.86.028-3.476-.8-3.106-2.344s.514-4.554-.194-5.623" transform="translate(-1336.884 -35.148)" fill="#e9616d" stroke="#000" stroke-linecap="round" stroke-linejoin="round" stroke-width="1"/>
          <g id="그룹_61090" data-name="그룹 61090" transform="translate(0 13.634)">
            <path id="패스_35865" data-name="패스 35865" d="M1336.25,46.147s-.141-3.86-1.494-3.886-2.693,5.563-.859,7.639,3.83-.5,3.83-.5" transform="translate(-1330.542 -42.251)" fill="#9b3546"/>
            <g id="그룹_61089" data-name="그룹 61089" transform="translate(0 0.01)">
              <path id="패스_35866" data-name="패스 35866" d="M1334.9,53.045a5.071,5.071,0,0,0,4.31-5.7,5.432,5.432,0,0,0-3.02-4.556,20.966,20.966,0,0,0-2.167,6.484s-2.431-5.662-.343-7.01c-2.717.427-4.143,3.451-3.949,5.846.191,2.364,1.279,4.283,3.234,4.824,0,0,1.587,5.923,7.169,4.955l1.7-1.811A5.149,5.149,0,0,1,1334.9,53.045Z" transform="translate(-1329.716 -42.261)" fill="#e9616d"/>
            </g>
            <path id="패스_35867" data-name="패스 35867" d="M1333.683,42.258c-2.088,1.348.343,7.01.343,7.01a20.966,20.966,0,0,1,2.167-6.484,5.432,5.432,0,0,1,3.02,4.556,5.071,5.071,0,0,1-4.31,5.7s1.4,4.444,6.931,3.031l-1.7,1.811c-5.581.967-7.169-4.955-7.169-4.955-1.955-.541-3.043-2.46-3.234-4.824-.193-2.4,1.232-5.419,3.949-5.846.461-.073,1.45.207,1.553,2.6" transform="translate(-1329.716 -42.248)" fill="none" stroke="#000" stroke-linecap="round" stroke-linejoin="round" stroke-width="1"/>
          </g>
          <g id="그룹_61091" data-name="그룹 61091" transform="translate(26.816 13.122)">
            <path id="패스_35868" data-name="패스 35868" d="M1381.222,45.309a19.421,19.421,0,0,0-2.546.715h0c2.032-1.886,1.538-2.965,1.128-3.317-2.409-2.071-6.138-1.062-8.1.9a6.142,6.142,0,0,0-1.466,6.829,32.106,32.106,0,0,1-4.7,3.594l1.139,1.2a25.679,25.679,0,0,0,4.555-3.376c2.146,2.146,5.837,1.932,8.245-.476A6.277,6.277,0,0,0,1381.222,45.309Z" transform="translate(-1365.534 -41.563)" fill="#e9616d"/>
            <path id="패스_35869" data-name="패스 35869" d="M1376.7,48.61s4.263-6.782,5.845-5.469-1.062,3.237-1.062,3.237Z" transform="translate(-1368.34 -41.918)" fill="#9b3546"/>
            <path id="패스_35870" data-name="패스 35870" d="M1371.228,54.832a25.679,25.679,0,0,1-4.555,3.376l-1.139-1.2a32.106,32.106,0,0,0,4.7-3.594" transform="translate(-1365.534 -44.542)" fill="none" stroke="#000" stroke-linecap="round" stroke-linejoin="round" stroke-width="1"/>
            <path id="패스_35871" data-name="패스 35871" d="M1371.654,50.437a6.142,6.142,0,0,1,1.466-6.829c1.962-1.963,5.691-2.972,8.1-.9.41.352.9,1.431-1.128,3.317" transform="translate(-1366.949 -41.563)" fill="none" stroke="#000" stroke-linecap="round" stroke-linejoin="round" stroke-width="1"/>
            <path id="패스_35872" data-name="패스 35872" d="M1381.717,43.066c-2.748-.828-5.911,5.549-5.911,5.549a24.21,24.21,0,0,1,7.328-2.947,6.276,6.276,0,0,1-1.748,6.067c-2.408,2.408-6.1,2.622-8.245.476" transform="translate(-1367.445 -41.923)" fill="none" stroke="#000" stroke-linecap="round" stroke-linejoin="round" stroke-width="1"/>
          </g>
          <path id="패스_35873" data-name="패스 35873" d="M1342.4,62.451a.679.679,0,0,0,.11.846,14.33,14.33,0,0,0,9.546,4.3,14.817,14.817,0,0,0,11.33-5.134.7.7,0,0,0,.07-.862c-2.513-3.782-5.957-6.158-9.82-6.286C1349.257,55.167,1345.237,57.937,1342.4,62.451Z" transform="translate(-1332.878 -31.896)" fill="#e9616d"/>
          <path id="패스_35874" data-name="패스 35874" d="M1352.108,69.243a14.817,14.817,0,0,0,11.33-5.134.687.687,0,0,0,.171-.341c-11.66-4.32-19.267-.087-21.1,1.124a.645.645,0,0,0,.048.055A14.33,14.33,0,0,0,1352.108,69.243Z" transform="translate(-1332.932 -33.545)" fill="#ffb899"/>
          <path id="패스_35875" data-name="패스 35875" d="M1350.018,44.826l1.086,8.594-1.311.625-1.147-9.022" transform="translate(-1334.474 -29.262)" fill="#e9616d" stroke="#000" stroke-linecap="round" stroke-linejoin="round" stroke-width="1"/>
          <path id="패스_35876" data-name="패스 35876" d="M1363.2,44.9l-1.755,8.4-1.325-.419,1.743-8.348" transform="translate(-1337.358 -29.188)" fill="#e9616d" stroke="#000" stroke-linecap="round" stroke-linejoin="round" stroke-width="1"/>
          <path id="패스_35877" data-name="패스 35877" d="M1355.89,64.367a5.574,5.574,0,0,0,3.845-1.531,1.48,1.48,0,0,0,.032-2.122l-.011-.012a1.5,1.5,0,0,0-2.086,0,2.621,2.621,0,0,1-3.561,0,1.5,1.5,0,0,0-2.086,0l-.011.012a1.479,1.479,0,0,0,.033,2.122A5.571,5.571,0,0,0,1355.89,64.367Z" transform="translate(-1335.211 -33.146)" fill="#fff" stroke="#000" stroke-linecap="round" stroke-linejoin="round" stroke-width="1"/>
          <line id="선_79" data-name="선 79" y2="2.969" transform="translate(20.679 28.253)" fill="none" stroke="#000" stroke-linecap="round" stroke-linejoin="round" stroke-width="1"/>
          <line id="선_80" data-name="선 80" y2="3.485" transform="translate(22.765 27.334)" fill="none" stroke="#000" stroke-linecap="round" stroke-linejoin="round" stroke-width="1"/>
          <line id="선_81" data-name="선 81" y2="3.469" transform="translate(18.624 27.351)" fill="none" stroke="#000" stroke-linecap="round" stroke-linejoin="round" stroke-width="1"/>
          <path id="패스_35878" data-name="패스 35878" d="M1362.452,44.452s.654-.717,1.337.368" transform="translate(-1337.944 -29.109)" fill="none" stroke="#000" stroke-linecap="round" stroke-linejoin="round" stroke-width="0.75"/>
          <circle id="타원_1687" data-name="타원 1687" cx="5.298" cy="5.298" r="5.298" transform="translate(8.814 5.163)" fill="#fff" stroke="#000" stroke-linecap="round" stroke-linejoin="round" stroke-width="1"/>
          <circle id="타원_1688" data-name="타원 1688" cx="5.298" cy="5.298" r="5.298" transform="translate(21.274 5.163)" fill="#fff" stroke="#000" stroke-linecap="round" stroke-linejoin="round" stroke-width="1"/>
          <circle id="타원_1689" data-name="타원 1689" cx="3.249" cy="3.249" r="3.249" transform="translate(11.121 7.47)"/>
          <path id="패스_35879" data-name="패스 35879" d="M1365.778,35.982l-3.885,2.375,4.359,1.286" transform="translate(-1337.803 -27.039)" fill="none" stroke="#000" stroke-linecap="round" stroke-linejoin="round" stroke-width="1"/>
          <path id="패스_35880" data-name="패스 35880" d="M1347.937,25.792a16.441,16.441,0,0,1,3.426,2.79" transform="translate(-1334.295 -24.478)" fill="none" stroke="#000" stroke-linecap="round" stroke-linejoin="round" stroke-width="1"/>
          <path id="패스_35881" data-name="패스 35881" d="M1359.676,27.868a9.211,9.211,0,0,1,2.954-3.831" transform="translate(-1337.246 -24.037)" fill="none" stroke="#000" stroke-linecap="round" stroke-linejoin="round" stroke-width="1"/>
          <path id="패스_35882" data-name="패스 35882" d="M1342.4,62.451a.679.679,0,0,0,.11.846,14.33,14.33,0,0,0,9.546,4.3,14.817,14.817,0,0,0,11.33-5.134.7.7,0,0,0,.07-.862c-2.513-3.782-5.957-6.158-9.82-6.286C1349.257,55.167,1345.237,57.937,1342.4,62.451Z" transform="translate(-1332.878 -31.896)" fill="none" stroke="#000" stroke-linecap="round" stroke-linejoin="round" stroke-width="1"/>
          <path id="패스_35883" data-name="패스 35883" d="M1349.646,74.741a10.969,10.969,0,0,0,3.635,2.48" transform="translate(-1334.725 -36.78)" fill="none" stroke="#000" stroke-linecap="round" stroke-linejoin="round" stroke-width="1"/>
          <path id="패스_35884" data-name="패스 35884" d="M1358.365,77.334a10.984,10.984,0,0,0,3.606-2.143" transform="translate(-1336.916 -36.893)" fill="none" stroke="#000" stroke-linecap="round" stroke-linejoin="round" stroke-width="1"/>
        </g>
      </g>
    </g>
  </g>
</svg>
