<svg xmlns="http://www.w3.org/2000/svg" width="30" height="30" viewBox="0 0 30 30">
  <g id="그룹_89136" data-name="그룹 89136" transform="translate(-0.162 -0.162)">
    <g id="그룹_39613" data-name="그룹 39613" transform="translate(3.667 2.965)">
      <g id="그룹_39612" data-name="그룹 39612" transform="translate(0 0)">
        <g id="그룹_39611" data-name="그룹 39611" transform="translate(1.503 0)">
          <g id="패스_9895" data-name="패스 9895" transform="translate(1)" fill="#68533b" stroke-linecap="round" stroke-linejoin="round">
            <path d="M 7.846494674682617 5.755264282226562 L 7.430554866790771 5.755264282226562 L 1.925284862518311 5.755264282226562 L 1.775024771690369 5.755264282226562 L 1.704514861106873 5.622573852539062 L -1.220765233039856 0.1173140481114388 L -1.415935158729553 -0.2499959468841553 L -0.9999951720237732 -0.2499959468841553 L 4.505264759063721 -0.2499959468841553 L 4.655524730682373 -0.2499959468841553 L 4.726034641265869 -0.1173059493303299 L 7.65132474899292 5.387954235076904 L 7.846494674682617 5.755264282226562 Z" stroke="none"/>
            <path d="M -1.000004768371582 3.814697265625e-06 L 1.925285339355469 5.505264282226562 L 7.430545330047607 5.505264282226562 L 4.505265235900879 3.814697265625e-06 L -1.000004768371582 3.814697265625e-06 M -1.000004768371582 -0.4999961853027344 L 4.505265235900879 -0.4999961853027344 C 4.690195083618164 -0.4999961853027344 4.860025405883789 -0.3979158401489258 4.946805000305176 -0.2346158027648926 L 7.872085571289062 5.270644187927246 C 7.954435348510742 5.425623893737793 7.94950532913208 5.612423896789551 7.859095573425293 5.762844085693359 C 7.768685340881348 5.913254261016846 7.606035232543945 6.005264282226562 7.430545330047607 6.005264282226562 L 1.925285339355469 6.005264282226562 C 1.740355491638184 6.005264282226562 1.570525169372559 5.903183937072754 1.483745098114014 5.739883899688721 L -1.441544532775879 0.234623908996582 C -1.523894786834717 0.07964420318603516 -1.518964767456055 -0.1071557998657227 -1.428554534912109 -0.2575759887695312 C -1.338144779205322 -0.4079861640930176 -1.17549467086792 -0.4999961853027344 -1.000004768371582 -0.4999961853027344 Z" stroke="none" fill="#68533b"/>
          </g>
          <g id="패스_9896" data-name="패스 9896" transform="translate(11.627)" fill="#68533b" stroke-linecap="round" stroke-linejoin="round">
            <path d="M 5.655535221099854 5.755602359771729 L 5.505265235900879 5.755602359771729 L -4.712371719506336e-06 5.755602359771729 L -0.4159347116947174 5.755602359771729 L -0.2207747101783752 5.388302326202393 L 2.704515218734741 -0.1172978654503822 L 2.775015354156494 -0.2499978691339493 L 2.925285339355469 -0.2499978691339493 L 8.43055534362793 -0.2499978691339493 L 8.846485137939453 -0.2499978691339493 L 8.651325225830078 0.1173021346330643 L 5.726035118103027 5.622901916503906 L 5.655535221099854 5.755602359771729 Z" stroke="none"/>
            <path d="M 2.925285339355469 1.9073486328125e-06 L -4.76837158203125e-06 5.505602359771729 L 5.505265235900879 5.505602359771729 L 8.43055534362793 1.9073486328125e-06 L 2.925285339355469 1.9073486328125e-06 M 2.925285339355469 -0.4999980926513672 L 8.43055534362793 -0.4999980926513672 C 8.606045722961426 -0.4999980926513672 8.768694877624512 -0.4079980850219727 8.859105110168457 -0.2575778961181641 C 8.949504852294922 -0.1071677207946777 8.954444885253906 0.07963228225708008 8.872095108032227 0.234611988067627 L 5.946805000305176 5.740211963653564 C 5.860034942626953 5.90352201461792 5.690205574035645 6.00560188293457 5.505265235900879 6.00560188293457 L -4.76837158203125e-06 6.00560188293457 C -0.1754951477050781 6.00560188293457 -0.3381443023681641 5.913602352142334 -0.4285545349121094 5.763182163238525 C -0.5189542770385742 5.612771987915039 -0.5238943099975586 5.425971984863281 -0.4415445327758789 5.270992279052734 L 2.483745098114014 -0.2346076965332031 C 2.570515155792236 -0.3979177474975586 2.740345478057861 -0.4999980926513672 2.925285339355469 -0.4999980926513672 Z" stroke="none" fill="#68533b"/>
          </g>
        </g>
        <circle id="타원_814" data-name="타원 814" cx="11.532" cy="11.532" r="11.532" transform="translate(0 1.247)" fill="#f2b79a"/>
        <text id="_3" data-name="3" transform="translate(11.494 16.197)" font-size="10" font-family="Pretendard-SemiBold, Pretendard" font-weight="600" letter-spacing="-0.02em"><tspan x="-3.159" y="0">3</tspan></text>
      </g>
      <g id="타원_815" data-name="타원 815" transform="translate(1.428 2.804)" fill="none" stroke="#dda88d" stroke-width="1.5">
        <circle cx="9.999" cy="9.999" r="9.999" stroke="none"/>
        <circle cx="9.999" cy="9.999" r="9.249" fill="none"/>
      </g>
    </g>
    <rect id="사각형_15933" data-name="사각형 15933" width="30" height="30" transform="translate(0.162 0.162)" fill="none"/>
  </g>
</svg>
