<svg xmlns="http://www.w3.org/2000/svg" xmlns:xlink="http://www.w3.org/1999/xlink" width="64" height="20" viewBox="0 0 64 20">
  <defs>
    <linearGradient id="linear-gradient" x1="0.5" x2="0.5" y2="1" gradientUnits="objectBoundingBox">
      <stop offset="0" stop-color="#fff"/>
      <stop offset="1" stop-color="#dfb5ff"/>
    </linearGradient>
  </defs>
  <g id="Group_90161" data-name="Group 90161" transform="translate(-371 -406)">
    <g id="Path_44417" data-name="Path 44417" transform="translate(373 422)" fill="url(#linear-gradient)">
      <path d="M 28.40999794006348 1.739999890327454 L 18.92999839782715 1.739999890327454 C 17.89403915405273 1.739999890327454 17.23575782775879 1.528869867324829 16.79557800292969 1.05541980266571 C 16.2707576751709 0.4909298419952393 16.19999885559082 -0.325650155544281 16.19999885559082 -1.050000190734863 L 16.19999885559082 -2.550000190734863 C 16.19999885559082 -3.074821949005127 16.35950088500977 -3.525610446929932 16.64334869384766 -3.868918418884277 C 15.755784034729 -4.045279979705811 15.14999866485596 -4.736148357391357 15.14999866485596 -5.640000343322754 C 15.14999866485596 -5.885836124420166 15.19104480743408 -6.114077568054199 15.26871776580811 -6.319302558898926 C 15.01028728485107 -6.127732276916504 14.69033241271973 -6.0119948387146 14.32499885559082 -5.989168643951416 L 14.32499885559082 -2.31000018119812 L 14.32499885559082 -1.710000157356262 L 13.72499847412109 -1.710000157356262 L 13.44841861724854 -1.710000157356262 C 14.27592849731445 -1.539991855621338 14.80499839782715 -0.90132737159729 14.80499839782715 -0.01500015240162611 C 14.80499839782715 1.034719824790955 14.075608253479 1.739999890327454 12.98999881744385 1.739999890327454 L 3.779998540878296 1.739999890327454 C 2.744038581848145 1.739999890327454 2.085758447647095 1.528869867324829 1.645578503608704 1.05541980266571 C 1.120758533477783 0.4909298419952393 1.04999852180481 -0.325650155544281 1.04999852180481 -1.050000190734863 L 1.04999852180481 -2.100000143051147 C 1.04999852180481 -2.659272909164429 1.256146311759949 -3.137043952941895 1.61176323890686 -3.481388568878174 C 0.5722337961196899 -3.516250371932983 -0.1200015246868134 -4.206056594848633 -0.1200015246868134 -5.220000267028809 C -0.1200015246868134 -6.101020336151123 0.4412084817886353 -6.990000247955322 1.694998502731323 -6.990000247955322 L 1.889998435974121 -6.990000247955322 L 1.889998435974121 -8.02500057220459 C 1.889998435974121 -8.784281730651855 2.195583581924438 -9.330397605895996 2.755213975906372 -9.614988327026367 L 2.189998388290405 -9.614999771118164 C 0.7301484942436218 -9.614999771118164 0.2099984735250473 -10.52933025360107 0.2099984735250473 -11.38500022888184 C 0.2099984735250473 -12.2406702041626 0.7301484942436218 -13.15499973297119 2.189998388290405 -13.15499973297119 L 7.574998378753662 -13.15499973297119 C 9.277008056640625 -13.15499973297119 10.13999843597412 -12.34751987457275 10.13999843597412 -10.75500011444092 L 10.13999843597412 -9.690000534057617 C 10.13999843597412 -8.513496398925781 10.01974487304688 -7.590862274169922 9.772747039794922 -6.876061916351318 C 9.933491706848145 -6.819243907928467 10.07569694519043 -6.743031024932861 10.19999885559082 -6.651544570922852 L 10.19999885559082 -11.50500011444092 C 10.19999885559082 -12.68706035614014 11.07055854797363 -13.54500007629395 12.26999855041504 -13.54500007629395 C 13.46074867248535 -13.54500007629395 14.32499885559082 -12.68706035614014 14.32499885559082 -11.50500011444092 L 14.32499885559082 -9.790831565856934 C 15.31764030456543 -9.728811264038086 15.97499847412109 -8.980688095092773 15.97499847412109 -7.890000343322754 C 15.97499847412109 -7.578921318054199 15.92151355743408 -7.295665264129639 15.82204914093018 -7.048290729522705 C 16.02082633972168 -7.193029880523682 16.25880813598633 -7.297250270843506 16.52942848205566 -7.352760314941406 C 17.56170845031738 -7.570700168609619 18.17999839782715 -8.349360466003418 18.17999839782715 -9.435000419616699 L 16.93499755859375 -9.435000419616699 C 15.88803863525391 -9.435000419616699 15.23999881744385 -10.36933040618896 15.23999881744385 -11.23500061035156 C 15.23999881744385 -12.1221399307251 15.83405876159668 -13.06500053405762 16.93499755859375 -13.06500053405762 L 23.65499877929688 -13.06500053405762 C 24.19029808044434 -13.06500053405762 24.65772819519043 -12.83240985870361 24.97117805480957 -12.41009044647217 C 25.21191787719727 -12.0857105255127 25.34999847412109 -11.65741062164307 25.34999847412109 -11.23500061035156 C 25.34999847412109 -10.9909496307373 25.29850578308105 -10.74147319793701 25.20107650756836 -10.50898265838623 C 25.30224418640137 -10.52285766601562 25.40705490112305 -10.52999973297119 25.51499938964844 -10.52999973297119 L 25.64999771118164 -10.52999973297119 L 25.64999771118164 -11.46000003814697 C 25.64999771118164 -12.66812992095947 26.53317832946777 -13.54500007629395 27.74999809265137 -13.54500007629395 C 28.96681785583496 -13.54500007629395 29.84999847412109 -12.66812992095947 29.84999847412109 -11.46000003814697 L 29.84999847412109 -2.31000018119812 L 29.84999847412109 -1.710000157356262 L 29.24999809265137 -1.710000157356262 L 28.95556640625 -1.710000157356262 C 29.58539009094238 -1.562753319740295 30.02540397644043 -1.151959776878357 30.18685340881348 -0.5613956451416016 C 30.21988105773926 -0.9713721871376038 30.3713436126709 -1.34645676612854 30.62163925170898 -1.631510138511658 C 30.85735893249512 -1.899970173835754 31.2947883605957 -2.220000267028809 32.03999710083008 -2.220000267028809 L 35.66999816894531 -2.220000267028809 L 35.66999816894531 -3.825000047683716 L 33.67499923706055 -3.825000047683716 C 32.8907585144043 -3.825000047683716 32.01714706420898 -3.906980037689209 31.4838981628418 -4.515010356903076 C 31.0366382598877 -5.024990081787109 30.94499778747559 -5.753320217132568 30.94499778747559 -6.690000057220459 L 30.94499778747559 -10.23000049591064 C 30.94499778747559 -11.16668033599854 31.0366382598877 -11.89500999450684 31.4838981628418 -12.40499019622803 C 32.01714706420898 -13.01302051544189 32.8907585144043 -13.09500026702881 33.67499923706055 -13.09500026702881 L 41.92499923706055 -13.09500026702881 C 42.7092399597168 -13.09500026702881 43.58284759521484 -13.01302051544189 44.1161003112793 -12.40499019622803 C 44.56335830688477 -11.89500999450684 44.65499877929688 -11.16668033599854 44.65499877929688 -10.23000049591064 L 44.65499877929688 -4.425000190734863 L 44.65499877929688 -3.825000047683716 L 44.05500030517578 -3.825000047683716 L 39.93000030517578 -3.825000047683716 L 39.93000030517578 -2.220000267028809 L 43.55999755859375 -2.220000267028809 C 44.30521011352539 -2.220000267028809 44.74263763427734 -1.899970173835754 44.97835922241211 -1.631510138511658 C 45.17141342163086 -1.411647439002991 45.30567169189453 -1.138219118118286 45.37213516235352 -0.8365375995635986 C 45.52799224853516 -1.598307847976685 46.12053298950195 -2.295000076293945 47.21999740600586 -2.295000076293945 L 58.68000030517578 -2.295000076293945 C 59.44343948364258 -2.295000076293945 59.89006805419922 -1.959160208702087 60.13029861450195 -1.677430152893066 C 60.41384887695312 -1.344910144805908 60.56999969482422 -0.8983501791954041 60.56999969482422 -0.4200001657009125 C 60.56999969482422 0.675139844417572 59.79279708862305 1.43999981880188 58.68000030517578 1.43999981880188 L 47.21999740600586 1.43999981880188 C 46.27040863037109 1.43999981880188 45.56521606445312 0.8831228017807007 45.37877655029297 0.03925466164946556 C 45.20801544189453 0.8925034403800964 44.51987457275391 1.43999981880188 43.55999755859375 1.43999981880188 L 32.03999710083008 1.43999981880188 C 31.12337875366211 1.43999981880188 30.45453834533691 0.9406875967979431 30.2474193572998 0.1526742875576019 C 30.16676902770996 1.109727740287781 29.44882011413574 1.739999890327454 28.40999794006348 1.739999890327454 Z M 5.294998645782471 -1.755000114440918 L 10.19999885559082 -1.755000114440918 L 10.19999885559082 -2.31000018119812 L 10.19999885559082 -3.815099954605103 C 9.898959159851074 -3.600191593170166 9.510105133056641 -3.480000257492065 9.059998512268066 -3.480000257492065 L 4.74642276763916 -3.480000257492065 C 5.093769550323486 -3.135754108428955 5.294998645782471 -2.65856671333313 5.294998645782471 -2.100000143051147 L 5.294998645782471 -1.755000114440918 Z M 20.44499778747559 -1.770000100135803 L 25.64999771118164 -1.770000100135803 L 25.64999771118164 -2.31000018119812 L 25.64999771118164 -6.914999961853027 L 25.51499938964844 -6.914999961853027 C 25.38603210449219 -6.914999961853027 25.26155853271484 -6.925110340118408 25.14237785339355 -6.944642543792725 C 25.37750434875488 -6.279050350189209 25.48032188415527 -5.483839988708496 25.45477867126465 -4.543700218200684 L 25.43891906738281 -3.960000038146973 L 24.8549976348877 -3.960000038146973 L 22.06499862670898 -3.960000038146973 L 21.39942932128906 -3.960000038146973 L 21.46820831298828 -4.622000217437744 C 21.5214786529541 -5.134690284729004 21.42066764831543 -5.599050045013428 21.19855880737305 -5.864180088043213 C 21.16501426696777 -5.904221057891846 21.12982177734375 -5.938509464263916 21.09277153015137 -5.967158317565918 C 20.60364723205566 -5.312089443206787 19.9799690246582 -4.777782917022705 19.2930736541748 -4.406649589538574 C 20.00727462768555 -4.099903583526611 20.44499778747559 -3.428799152374268 20.44499778747559 -2.550000190734863 L 20.44499778747559 -1.770000100135803 Z M 4.88737154006958 -9.614941596984863 C 5.456269264221191 -9.327686309814453 5.774998664855957 -8.776447296142578 5.774998664855957 -8.02500057220459 L 5.774998664855957 -7.099190711975098 L 5.786828517913818 -7.137410163879395 C 5.976658344268799 -7.750730037689209 6.089998245239258 -8.581600189208984 6.089998245239258 -9.360000610351562 L 6.089998245239258 -9.61491584777832 L 4.88737154006958 -9.614941596984863 Z M 35.14499664306641 -7.380000114440918 L 40.45499801635742 -7.380000114440918 L 40.45499801635742 -9.539895057678223 L 35.14499664306641 -9.539995193481445 L 35.14499664306641 -7.380000114440918 Z M 22.21441459655762 -9.357575416564941 C 22.75625801086426 -9.258626937866211 23.23343086242676 -9.084973335266113 23.64345169067383 -8.837843894958496 C 23.65570640563965 -9.05410099029541 23.70036315917969 -9.255702018737793 23.77354431152344 -9.439057350158691 C 23.73460006713867 -9.436367988586426 23.69512939453125 -9.435000419616699 23.65499877929688 -9.435000419616699 L 22.21499824523926 -9.435000419616699 C 22.21499824523926 -9.408913612365723 22.21479606628418 -9.383106231689453 22.21441459655762 -9.357575416564941 Z M 58.03499984741211 -3.720000267028809 L 49.13999938964844 -3.720000267028809 C 47.02667999267578 -3.720000267028809 46.125 -4.612709999084473 46.125 -6.704999923706055 L 46.125 -10.09500026702881 C 46.125 -12.17677974700928 47.02667999267578 -13.06500053405762 49.13999938964844 -13.06500053405762 L 57.79499816894531 -13.06500053405762 C 58.36792755126953 -13.06500053405762 58.8576774597168 -12.83152008056641 59.17400741577148 -12.40756988525391 C 59.41646957397461 -12.08262062072754 59.54999923706055 -11.65554046630859 59.54999923706055 -11.20499992370605 C 59.54999923706055 -10.7557201385498 59.41287994384766 -10.32919979095459 59.16389846801758 -10.00399971008301 C 58.845947265625 -9.588709831237793 58.35978698730469 -9.360000610351562 57.79499816894531 -9.360000610351562 L 50.3849983215332 -9.360000610351562 L 50.3849983215332 -7.425000190734863 L 58.03499984741211 -7.425000190734863 C 58.59784698486328 -7.425000190734863 59.08588790893555 -7.195300102233887 59.40919876098633 -6.7782301902771 C 59.6644401550293 -6.448980331420898 59.80500030517578 -6.023440361022949 59.80500030517578 -5.579999923706055 C 59.80500030517578 -5.138530254364014 59.65853881835938 -4.696820259094238 59.40317916870117 -4.36814022064209 C 59.07845687866211 -3.950180053710938 58.59255981445312 -3.720000267028809 58.03499984741211 -3.720000267028809 Z" stroke="none"/>
      <path d="M 12.26999664306641 -12.94499969482422 C 11.47499847412109 -12.94499969482422 10.79999923706055 -12.4350004196167 10.79999923706055 -11.50500011444092 L 10.79999923706055 -2.310000419616699 L 13.72499847412109 -2.310000419616699 L 13.72499847412109 -6.585000038146973 L 14.18999862670898 -6.585000038146973 C 15.09000015258789 -6.585000038146973 15.375 -7.275000095367432 15.375 -7.890000343322754 C 15.375 -8.489999771118164 15.10499954223633 -9.194999694824219 14.18999862670898 -9.194999694824219 L 13.72499847412109 -9.194999694824219 L 13.72499847412109 -11.50500011444092 C 13.72499847412109 -12.4350004196167 13.06499862670898 -12.94499969482422 12.26999664306641 -12.94499969482422 M 27.75 -12.94499969482422 C 26.95499801635742 -12.94499969482422 26.25 -12.4350004196167 26.25 -11.46000003814697 L 26.25 -9.930000305175781 L 25.51499938964844 -9.930000305175781 C 24.71999740600586 -9.930000305175781 24.23999786376953 -9.435000419616699 24.23999786376953 -8.715000152587891 C 24.23999786376953 -7.980000495910645 24.7349967956543 -7.515000343322754 25.51499938964844 -7.515000343322754 L 26.25 -7.515000343322754 L 26.25 -2.310000419616699 L 29.24999809265137 -2.310000419616699 L 29.24999809265137 -11.46000003814697 C 29.24999809265137 -12.4350004196167 28.54499816894531 -12.94499969482422 27.75 -12.94499969482422 M 2.189998626708984 -12.55500030517578 C 1.215000152587891 -12.55500030517578 0.80999755859375 -12.0600004196167 0.80999755859375 -11.38500022888184 C 0.80999755859375 -10.69499969482422 1.229999542236328 -10.21500015258789 2.189998626708984 -10.21500015258789 L 6.329998016357422 -10.21500015258789 C 6.569999694824219 -10.21500015258789 6.689998626708984 -10.09500026702881 6.689998626708984 -9.885000228881836 L 6.689998626708984 -9.360000610351562 C 6.689998626708984 -8.475000381469727 6.555000305175781 -7.590000152587891 6.359996795654297 -6.960000038146973 L 9.164997100830078 -6.960000038146973 C 9.404998779296875 -7.590000152587891 9.539997100830078 -8.460000038146973 9.539997100830078 -9.690000534057617 L 9.539997100830078 -10.75500011444092 C 9.539997100830078 -11.97000026702881 8.984996795654297 -12.55500030517578 7.574996948242188 -12.55500030517578 L 2.189998626708984 -12.55500030517578 M 33.67499923706055 -12.49499988555908 C 31.87499809265137 -12.49499988555908 31.54499816894531 -11.95499992370605 31.54499816894531 -10.23000049591064 L 31.54499816894531 -6.690000057220459 C 31.54499816894531 -4.965000152587891 31.87499809265137 -4.425000190734863 33.67499923706055 -4.425000190734863 L 36.26999664306641 -4.425000190734863 L 36.26999664306641 -1.619999885559082 L 32.04000091552734 -1.619999885559082 C 31.13999938964844 -1.619999885559082 30.77999877929688 -1.005000114440918 30.77999877929688 -0.3900003433227539 C 30.77999877929688 0.255000114440918 31.15499877929688 0.8400001525878906 32.04000091552734 0.8400001525878906 L 43.55999755859375 0.8400001525878906 C 44.44499969482422 0.8400001525878906 44.81999969482422 0.255000114440918 44.81999969482422 -0.3900003433227539 C 44.81999969482422 -1.005000114440918 44.45999908447266 -1.619999885559082 43.55999755859375 -1.619999885559082 L 39.32999801635742 -1.619999885559082 L 39.32999801635742 -4.425000190734863 L 44.05500030517578 -4.425000190734863 L 44.05500030517578 -10.23000049591064 C 44.05500030517578 -11.95499992370605 43.72499847412109 -12.49499988555908 41.92499923706055 -12.49499988555908 L 33.67499923706055 -12.49499988555908 M 41.05500030517578 -6.78000020980835 L 34.99499893188477 -6.78000020980835 C 34.6349983215332 -6.78000020980835 34.54499816894531 -6.945000171661377 34.54499816894531 -7.230000019073486 L 34.54499816894531 -9.704999923706055 C 34.54499816894531 -9.960000038146973 34.58999633789062 -10.14000034332275 34.88999938964844 -10.14000034332275 L 40.69499969482422 -10.14000034332275 C 40.99499893188477 -10.14000034332275 41.05500030517578 -9.960000038146973 41.05500030517578 -9.704999923706055 L 41.05500030517578 -6.78000020980835 M 16.93499755859375 -12.46500015258789 C 16.16999816894531 -12.46500015258789 15.84000015258789 -11.77500057220459 15.84000015258789 -11.23500061035156 C 15.84000015258789 -10.69499969482422 16.22999954223633 -10.03499984741211 16.93499755859375 -10.03499984741211 L 18.77999877929688 -10.03499984741211 L 18.77999877929688 -9.435000419616699 C 18.77999877929688 -8.100000381469727 18 -7.050000190734863 16.64999771118164 -6.765000343322754 C 16.06499862670898 -6.644999980926514 15.75 -6.225000381469727 15.75 -5.640000343322754 C 15.75 -4.860000133514404 16.36499786376953 -4.425000190734863 17.09999847412109 -4.425000190734863 C 18.46500015258789 -4.425000190734863 19.96500015258789 -5.25 20.84999847412109 -6.675000190734863 C 21.67499923706055 -6.615000247955322 22.18499755859375 -5.715000152587891 22.06499862670898 -4.559999942779541 L 24.85499954223633 -4.559999942779541 C 24.93000030517578 -7.320000171661377 23.80500030517578 -8.655000686645508 21.58499908447266 -8.835000038146973 C 21.59999847412109 -9.030000686645508 21.61499786376953 -9.225000381469727 21.61499786376953 -9.435000419616699 L 21.61499786376953 -10.03499984741211 L 23.65499877929688 -10.03499984741211 C 24.3599967956543 -10.03499984741211 24.75 -10.69499969482422 24.75 -11.23500061035156 C 24.75 -11.77500057220459 24.41999816894531 -12.46500015258789 23.65499877929688 -12.46500015258789 L 16.93499755859375 -12.46500015258789 M 49.13999938964844 -12.46500015258789 C 47.33999633789062 -12.46500015258789 46.72499847412109 -11.81999969482422 46.72499847412109 -10.09500026702881 L 46.72499847412109 -6.704999923706055 C 46.72499847412109 -4.965000152587891 47.33999633789062 -4.320000171661377 49.13999938964844 -4.320000171661377 L 58.03499984741211 -4.320000171661377 C 58.8599967956543 -4.320000171661377 59.20499801635742 -5.010000228881836 59.20499801635742 -5.579999923706055 C 59.20499801635742 -6.135000228881836 58.875 -6.825000286102295 58.03499984741211 -6.825000286102295 L 50.20499801635742 -6.825000286102295 C 49.88999938964844 -6.825000286102295 49.78499984741211 -6.930000305175781 49.78499984741211 -7.24500036239624 L 49.78499984741211 -9.555000305175781 C 49.78499984741211 -9.869999885559082 49.88999938964844 -9.960000038146973 50.20499801635742 -9.960000038146973 L 57.79499816894531 -9.960000038146973 C 58.6349983215332 -9.960000038146973 58.94999694824219 -10.63500022888184 58.94999694824219 -11.20499992370605 C 58.94999694824219 -11.77500057220459 58.64999771118164 -12.46500015258789 57.79499816894531 -12.46500015258789 L 49.13999938964844 -12.46500015258789 M 3.824996948242188 -9.239999771118164 C 3.029998779296875 -9.239999771118164 2.489997863769531 -8.940000534057617 2.489997863769531 -8.024999618530273 L 2.489997863769531 -6.390000343322754 L 1.694999694824219 -6.390000343322754 C 0.8400001525878906 -6.390000343322754 0.4799995422363281 -5.835000038146973 0.4799995422363281 -5.220000267028809 C 0.4799995422363281 -4.590000152587891 0.8549995422363281 -4.079999923706055 1.694999694824219 -4.079999923706055 L 9.05999755859375 -4.079999923706055 C 9.899997711181641 -4.079999923706055 10.27499771118164 -4.590000152587891 10.27499771118164 -5.220000267028809 C 10.27499771118164 -5.835000038146973 9.914997100830078 -6.390000343322754 9.05999755859375 -6.390000343322754 L 5.174999237060547 -6.390000343322754 L 5.174999237060547 -8.024999618530273 C 5.174999237060547 -8.925000190734863 4.604999542236328 -9.239999771118164 3.824996948242188 -9.239999771118164 M 18.34499740600586 -3.990000247955322 C 17.50499725341797 -3.990000247955322 16.79999923706055 -3.52500057220459 16.79999923706055 -2.550000190734863 L 16.79999923706055 -1.050000190734863 C 16.79999923706055 0.5550003051757812 17.25 1.139999389648438 18.93000030517578 1.139999389648438 L 28.40999984741211 1.139999389648438 C 29.29499816894531 1.139999389648438 29.65499877929688 0.5850000381469727 29.65499877929688 -0.02999973297119141 C 29.65499877929688 -0.630000114440918 29.30999755859375 -1.170000076293945 28.40999984741211 -1.170000076293945 L 20.20499801635742 -1.170000076293945 C 19.91999816894531 -1.170000076293945 19.84499740600586 -1.215000152587891 19.84499740600586 -1.5 L 19.84499740600586 -2.550000190734863 C 19.84499740600586 -3.510000228881836 19.18499755859375 -3.990000247955322 18.34499740600586 -3.990000247955322 M 3.194999694824219 -3.465000152587891 C 2.354999542236328 -3.465000152587891 1.649997711181641 -3 1.649997711181641 -2.100000381469727 L 1.649997711181641 -1.050000190734863 C 1.649997711181641 0.5550003051757812 2.099998474121094 1.139999389648438 3.779998779296875 1.139999389648438 L 12.98999786376953 1.139999389648438 C 13.84499740600586 1.139999389648438 14.20499801635742 0.5999994277954102 14.20499801635742 -0.01500034332275391 C 14.20499801635742 -0.6149997711181641 13.8599967956543 -1.154999732971191 12.98999786376953 -1.154999732971191 L 4.979999542236328 -1.154999732971191 C 4.769996643066406 -1.154999732971191 4.694999694824219 -1.215000152587891 4.694999694824219 -1.425000190734863 L 4.694999694824219 -2.100000381469727 C 4.694999694824219 -2.985000610351562 4.034999847412109 -3.465000152587891 3.194999694824219 -3.465000152587891 M 47.21999740600586 -1.694999694824219 C 46.28999710083008 -1.694999694824219 45.93000030517578 -1.034999847412109 45.93000030517578 -0.4200000762939453 C 45.93000030517578 0.2100000381469727 46.30500030517578 0.8400001525878906 47.21999740600586 0.8400001525878906 L 58.68000030517578 0.8400001525878906 C 59.59499740600586 0.8400001525878906 59.96999740600586 0.2100000381469727 59.96999740600586 -0.4200000762939453 C 59.96999740600586 -1.034999847412109 59.6099967956543 -1.694999694824219 58.68000030517578 -1.694999694824219 L 47.21999740600586 -1.694999694824219 M 12.26999664306641 -14.14500045776367 C 13.5522575378418 -14.14500045776367 14.54147338867188 -13.3736572265625 14.83534240722656 -12.23102474212646 C 14.9138298034668 -12.42251777648926 15.01498794555664 -12.60325241088867 15.13702011108398 -12.76766967773438 C 15.56649017333984 -13.34632015228271 16.20501708984375 -13.66499996185303 16.93499755859375 -13.66499996185303 L 23.65499877929688 -13.66499996185303 C 24.35525894165039 -13.66499996185303 24.97137069702148 -13.37173175811768 25.39950180053711 -12.83703804016113 C 25.53076553344727 -13.06851768493652 25.69741058349609 -13.27758598327637 25.89677810668945 -13.45796966552734 C 26.38644790649414 -13.90101051330566 27.04460906982422 -14.14500045776367 27.75 -14.14500045776367 C 28.45538902282715 -14.14500045776367 29.11354827880859 -13.90101051330566 29.60321807861328 -13.45796966552734 C 30.12790489196777 -12.98324966430664 30.42609024047852 -12.30959033966064 30.4486198425293 -11.55287742614746 C 30.54446983337402 -12.03055477142334 30.72087478637695 -12.44492244720459 31.03280830383301 -12.80060005187988 C 31.7239990234375 -13.58874034881592 32.75632858276367 -13.69499969482422 33.67499923706055 -13.69499969482422 L 41.92499923706055 -13.69499969482422 C 42.84366607666016 -13.69499969482422 43.87599945068359 -13.58874034881592 44.56718826293945 -12.80060005187988 C 45.13802719116211 -12.14970970153809 45.25499725341797 -11.30222988128662 45.25499725341797 -10.23000049591064 L 45.25499725341797 -3.225000381469727 L 40.52999877929688 -3.225000381469727 L 40.52999877929688 -2.819999694824219 L 43.55999755859375 -2.819999694824219 C 44.27466583251953 -2.819999694824219 44.90658187866211 -2.568836212158203 45.3526611328125 -2.110235214233398 C 45.79816436767578 -2.600966453552246 46.4532470703125 -2.895000457763672 47.21999740600586 -2.895000457763672 L 58.68000030517578 -2.895000457763672 C 60.12279891967773 -2.895000457763672 61.16999816894531 -1.854109764099121 61.16999816894531 -0.4200000762939453 C 61.16999816894531 1.005419731140137 60.12279891967773 2.039999961853027 58.68000030517578 2.039999961853027 L 47.21999740600586 2.039999961853027 C 46.47323608398438 2.039999961853027 45.83246612548828 1.762866973876953 45.38800430297852 1.297821998596191 C 45.06642150878906 1.642974853515625 44.49347686767578 2.039999961853027 43.55999755859375 2.039999961853027 L 32.04000091552734 2.039999961853027 C 31.24589157104492 2.039999961853027 30.71266937255859 1.752655029296875 30.37317848205566 1.454371452331543 C 29.94232177734375 2.008094787597656 29.25007629394531 2.340000152587891 28.40999984741211 2.340000152587891 L 18.93000030517578 2.340000152587891 C 18.17472839355469 2.340000152587891 17.08619689941406 2.249189376831055 16.35615921020508 1.463959693908691 C 15.68594741821289 0.7431001663208008 15.59999847412109 -0.2581996917724609 15.59999847412109 -1.050000190734863 L 15.59999847412109 -2.550000190734863 C 15.59999847412109 -2.911559104919434 15.66106796264648 -3.247746467590332 15.77514266967773 -3.550815582275391 C 15.63311386108398 -3.628080368041992 15.49993133544922 -3.718387603759766 15.37770843505859 -3.821020126342773 C 15.19934463500977 -3.970790863037109 15.04778671264648 -4.142606258392334 14.92499923706055 -4.332112789154053 L 14.92499923706055 -1.485825538635254 C 15.23119354248047 -1.094944953918457 15.40499877929688 -0.5912809371948242 15.40499877929688 -0.01500034332275391 C 15.40499877929688 1.371589660644531 14.41191864013672 2.340000152587891 12.98999786376953 2.340000152587891 L 3.779998779296875 2.340000152587891 C 3.024726867675781 2.340000152587891 1.936199188232422 2.249189376831055 1.206157684326172 1.463959693908691 C 0.53594970703125 0.7431001663208008 0.4499969482421875 -0.2581996917724609 0.4499969482421875 -1.050000190734863 L 0.4499969482421875 -2.100000381469727 C 0.4499969482421875 -2.454329490661621 0.5155830383300781 -2.785420417785645 0.6370773315429688 -3.084331512451172 C -0.1954765319824219 -3.436797142028809 -0.720001220703125 -4.218635082244873 -0.720001220703125 -5.220000267028809 C -0.720001220703125 -5.843480110168457 -0.5066719055175781 -6.420490264892578 -0.1193122863769531 -6.844749927520752 C 0.1435508728027344 -7.132645606994629 0.5902557373046875 -7.467363357543945 1.289997100830078 -7.563161373138428 L 1.289997100830078 -8.024999618530273 C 1.289997100830078 -8.419410705566406 1.358070373535156 -8.774202346801758 1.487224578857422 -9.082796096801758 C 1.030941009521484 -9.176945686340332 0.6431083679199219 -9.368854522705078 0.3291282653808594 -9.656660079956055 C -0.1413307189941406 -10.08792018890381 -0.3900032043457031 -10.68556976318359 -0.3900032043457031 -11.38500022888184 C -0.3900032043457031 -12.07665061950684 -0.1459197998046875 -12.6699104309082 0.31585693359375 -13.10064029693604 C 0.7813491821289062 -13.53483963012695 1.411907196044922 -13.75500011444092 2.189998626708984 -13.75500011444092 L 7.574996948242188 -13.75500011444092 C 8.597499847412109 -13.75500011444092 9.361648559570312 -13.50221061706543 9.911109924316406 -12.98217964172363 C 9.934371948242188 -12.96016216278076 9.957138061523438 -12.93774795532227 9.97943115234375 -12.91491317749023 C 10.10187149047852 -13.11690521240234 10.25261306762695 -13.30072116851807 10.42966842651367 -13.46168041229248 C 10.91437911987305 -13.90231990814209 11.56795883178711 -14.14500045776367 12.26999664306641 -14.14500045776367 Z M 39.85499572753906 -8.940000534057617 L 35.74499893188477 -8.940000534057617 L 35.74499893188477 -7.980000495910645 L 39.85499572753906 -7.980000495910645 L 39.85499572753906 -8.940000534057617 Z M 17.48497772216797 -8.835000038146973 L 16.93499755859375 -8.835000038146973 C 16.74776840209961 -8.835000038146973 16.56984329223633 -8.85676097869873 16.40223693847656 -8.89714527130127 C 16.50498962402344 -8.62059497833252 16.56430435180664 -8.313729286193848 16.57368087768555 -7.983187675476074 C 17.10847473144531 -8.146903991699219 17.36589050292969 -8.491689682006836 17.48497772216797 -8.835000038146973 Z M 35.06999969482422 -3.225000381469727 L 33.67499923706055 -3.225000381469727 C 32.75632858276367 -3.225000381469727 31.7239990234375 -3.331259727478027 31.03280830383301 -4.119400024414062 C 30.72237205505371 -4.473369121551514 30.5461597442627 -4.885503768920898 30.44999885559082 -5.360282421112061 L 30.44999885559082 -2.294279098510742 C 30.87600326538086 -2.635594367980957 31.42761611938477 -2.819999694824219 32.04000091552734 -2.819999694824219 L 35.06999969482422 -2.819999694824219 L 35.06999969482422 -3.225000381469727 Z M 20.77705001831055 -3.775660514831543 L 20.87141799926758 -4.684010028839111 C 20.8766975402832 -4.73479700088501 20.87992477416992 -4.783288955688477 20.88141250610352 -4.829414844512939 C 20.71464538574219 -4.670798778533936 20.53982543945312 -4.522187232971191 20.3584098815918 -4.384431838989258 C 20.52671432495117 -4.206102848052979 20.66762161254883 -4.001839160919189 20.77705001831055 -3.775660514831543 Z M 25.04999923706055 -3.360000610351562 L 20.9351806640625 -3.360000610351562 C 21.00704574584961 -3.108643531799316 21.04499816894531 -2.837273597717285 21.04499816894531 -2.550000190734863 L 21.04499816894531 -2.369999885559082 L 25.04999923706055 -2.369999885559082 L 25.04999923706055 -3.360000610351562 Z M 9.599998474121094 -2.355000495910645 L 9.599998474121094 -2.929161071777344 C 9.428382873535156 -2.896818161010742 9.247894287109375 -2.880000114440918 9.05999755859375 -2.880000114440918 L 5.782516479492188 -2.880000114440918 C 5.832931518554688 -2.713173866271973 5.867130279541016 -2.537641525268555 5.883617401123047 -2.355000495910645 L 9.599998474121094 -2.355000495910645 Z M 49.13999938964844 -13.66499996185303 L 57.79499816894531 -13.66499996185303 C 59.15958023071289 -13.66499996185303 60.14999771118164 -12.63041973114014 60.14999771118164 -11.20499992370605 C 60.14999771118164 -10.62460994720459 59.96899032592773 -10.06855010986328 59.64030838012695 -9.639260292053223 C 59.20619964599609 -9.072259902954102 58.55085754394531 -8.760000228881836 57.79499816894531 -8.760000228881836 L 50.98501205444336 -8.760000228881836 L 50.98500442504883 -8.025018692016602 L 58.03499984741211 -8.024999618530273 C 59.57436752319336 -8.024999618530273 60.40499877929688 -6.765280246734619 60.40499877929688 -5.579999923706055 C 60.40499877929688 -4.387450218200684 59.57436752319336 -3.119999885559082 58.03499984741211 -3.119999885559082 L 49.13999938964844 -3.119999885559082 C 48.35030746459961 -3.119999885559082 47.20803070068359 -3.212409973144531 46.40896987915039 -4.011470317840576 C 45.61663055419922 -4.803810119628906 45.52499771118164 -5.928190231323242 45.52499771118164 -6.704999923706055 L 45.52499771118164 -10.09500026702881 C 45.52499771118164 -10.86806011199951 45.61684799194336 -11.98721027374268 46.41107940673828 -12.77750968933105 C 47.21052932739258 -13.57299995422363 48.35139846801758 -13.66499996185303 49.13999938964844 -13.66499996185303 Z" stroke="none" fill="#9042cb"/>
    </g>
    <rect id="Rectangle_148170" data-name="Rectangle 148170" width="64" height="20" transform="translate(371 406)" fill="none"/>
  </g>
</svg>
