<svg id="그룹_48263" data-name="그룹 48263" xmlns="http://www.w3.org/2000/svg" width="12" height="12" viewBox="0 0 12 12">
  <path id="패스_22594" data-name="패스 22594" d="M344.819,292.93l1.409,2.413a.528.528,0,0,0,.344.25l2.73.594a.528.528,0,0,1,.282.868l-1.86,2.085a.528.528,0,0,0-.132.4l.279,2.78a.528.528,0,0,1-.738.536l-2.558-1.124a.529.529,0,0,0-.425,0l-2.558,1.124a.528.528,0,0,1-.738-.536l.279-2.78a.528.528,0,0,0-.132-.4l-1.86-2.085a.528.528,0,0,1,.282-.868l2.73-.594a.528.528,0,0,0,.344-.25l1.409-2.413A.528.528,0,0,1,344.819,292.93Z" transform="translate(-338.74 -291.787)" fill="#ff4376"/>
  <rect id="사각형_18490" data-name="사각형 18490" width="12" height="12" fill="none"/>
</svg>
