<svg xmlns="http://www.w3.org/2000/svg" width="18" height="18" viewBox="0 0 18 18">
  <g id="그룹_48263" data-name="그룹 48263" transform="translate(-0.36 0.019)">
    <path id="패스_22594" data-name="패스 22594" d="M346.911,293.024l1.916,3.282a.718.718,0,0,0,.468.34l3.713.808a.718.718,0,0,1,.383,1.18l-2.529,2.836a.718.718,0,0,0-.179.55l.379,3.781a.718.718,0,0,1-1,.729L346.579,305a.719.719,0,0,0-.578,0l-3.479,1.529a.718.718,0,0,1-1-.729l.379-3.781a.719.719,0,0,0-.179-.55l-2.529-2.836a.719.719,0,0,1,.383-1.18l3.713-.808a.718.718,0,0,0,.468-.34l1.916-3.282A.718.718,0,0,1,346.911,293.024Z" transform="translate(-336.929 -290.649)" fill="#a8b2cc"/>
    <rect id="사각형_18490" data-name="사각형 18490" width="18" height="18" transform="translate(0.36 -0.019)" fill="none"/>
  </g>
</svg>
