<svg xmlns="http://www.w3.org/2000/svg" xmlns:xlink="http://www.w3.org/1999/xlink" width="77.732" height="16.53" viewBox="0 0 77.732 16.53">
  <defs>
    <linearGradient id="linear-gradient" x1="0.5" x2="0.5" y2="1" gradientUnits="objectBoundingBox">
      <stop offset="0" stop-color="#fff"/>
      <stop offset="1" stop-color="#abd6ff"/>
    </linearGradient>
  </defs>
  <g id="Path_44418" data-name="Path 44418" transform="translate(0.72 14.145)" fill="url(#linear-gradient)">
    <path d="M 72.45000457763672 1.784999847412109 L 64.95000457763672 1.784999847412109 C 62.78972244262695 1.784999847412109 61.50000381469727 0.635469913482666 61.50000381469727 -1.290000081062317 C 61.50000381469727 -2.54277777671814 62.04595565795898 -3.467071056365967 63.0224494934082 -3.960000038146973 L 62.8650016784668 -3.960000038146973 C 61.79734039306641 -3.960000038146973 61.08000183105469 -4.647200107574463 61.08000183105469 -5.670000076293945 C 61.08000183105469 -6.324686527252197 61.36880874633789 -6.843057632446289 61.8526725769043 -7.134519100189209 C 61.54585266113281 -7.445271492004395 61.38000106811523 -7.864481925964355 61.38000106811523 -8.369999885559082 C 61.38000106811523 -9.22203254699707 61.89784622192383 -9.85565185546875 62.68344116210938 -10.02659225463867 C 62.03695297241211 -10.27385807037354 61.65000152587891 -10.83037185668945 61.65000152587891 -11.57999992370605 C 61.65000152587891 -12.62790012359619 62.38009262084961 -13.30500030517578 63.51000213623047 -13.30500030517578 L 73.88999938964844 -13.30500030517578 C 75.01991271972656 -13.30500030517578 75.75 -12.62790012359619 75.75 -11.57999992370605 C 75.75 -10.67803287506104 75.18986511230469 -10.05565071105957 74.29141235351562 -9.915141105651855 C 75.29441070556641 -9.347394943237305 75.94322967529297 -8.451252937316895 76.16000366210938 -7.279109954833984 L 76.29113006591797 -6.570000171661377 L 76.09777069091797 -6.570000171661377 C 76.24148559570312 -6.315617084503174 76.31999969482422 -6.011323928833008 76.31999969482422 -5.670000076293945 C 76.31999969482422 -4.647200107574463 75.6026611328125 -3.960000038146973 74.53500366210938 -3.960000038146973 L 74.37755584716797 -3.960000038146973 C 75.35404968261719 -3.467071056365967 75.90000152587891 -2.54277777671814 75.90000152587891 -1.290000081062317 C 75.90000152587891 0.635469913482666 74.61028289794922 1.784999847412109 72.45000457763672 1.784999847412109 Z M 68.40035247802734 -7.394999980926514 L 71.49726867675781 -7.394999980926514 C 71.09521484375 -7.633144855499268 70.52532196044922 -7.762790203094482 69.83984375 -7.762790203094482 C 69.54962158203125 -7.762790203094482 69.24543762207031 -7.739105701446533 68.93402099609375 -7.692336082458496 C 68.76517486572266 -7.586315155029297 68.58705139160156 -7.487114429473877 68.40035247802734 -7.394999980926514 Z M 60.60000228881836 1.739999890327454 L 60.00000381469727 1.739999890327454 L 57.00000381469727 1.739999890327454 L 56.40000152587891 1.739999890327454 L 56.40000152587891 1.139999866485596 L 56.40000152587891 -11.46000003814697 C 56.40000152587891 -12.66812992095947 57.28318405151367 -13.54500007629395 58.50000381469727 -13.54500007629395 C 59.71682357788086 -13.54500007629395 60.60000228881836 -12.66812992095947 60.60000228881836 -11.46000003814697 L 60.60000228881836 1.139999866485596 L 60.60000228881836 1.739999890327454 Z M 44.08500289916992 1.739999890327454 L 33.3900032043457 1.739999890327454 C 32.41667175292969 1.739999890327454 31.84303283691406 1.363999843597412 31.533203125 1.048569917678833 C 31.11896324157715 0.6268398761749268 30.90000152587891 0.05158988386392593 30.90000152587891 -0.6150001287460327 L 30.90000152587891 -0.6600000858306885 C 30.90000152587891 -1.425154685974121 31.18237495422363 -2.032577037811279 31.6872615814209 -2.427446842193604 C 31.29446029663086 -2.671682596206665 31.05000305175781 -3.098584413528442 31.05000305175781 -3.615000009536743 C 31.05000305175781 -3.95393705368042 31.14974212646484 -4.251157283782959 31.32606506347656 -4.484210014343262 C 30.78518676757812 -4.712645053863525 30.48000144958496 -5.19418478012085 30.48000144958496 -5.865000247955322 C 30.48000144958496 -6.477187156677246 30.74841690063477 -6.938927173614502 31.21737670898438 -7.187820434570312 C 30.96432685852051 -7.447312831878662 30.82500267028809 -7.809277057647705 30.82500267028809 -8.25 C 30.82500267028809 -9.193739891052246 31.45150184631348 -9.779999732971191 32.46000289916992 -9.779999732971191 L 33.16911697387695 -9.779999732971191 C 33.20924377441406 -9.930915832519531 33.26777648925781 -10.07139492034912 33.34322738647461 -10.19999980926514 L 32.6400032043457 -10.19999980926514 C 31.64678192138672 -10.19999980926514 31.00500297546387 -10.8182201385498 31.00500297546387 -11.77500057220459 C 31.00500297546387 -12.73178005218506 31.64678192138672 -13.35000038146973 32.6400032043457 -13.35000038146973 L 43.56000137329102 -13.35000038146973 C 44.55322265625 -13.35000038146973 45.19500350952148 -12.73178005218506 45.19500350952148 -11.77500057220459 C 45.19500350952148 -10.8182201385498 44.55322265625 -10.19999980926514 43.56000137329102 -10.19999980926514 L 42.860107421875 -10.19999980926514 C 42.93450546264648 -10.07139492034912 42.99221801757812 -9.930915832519531 43.03178405761719 -9.779999732971191 L 43.7400016784668 -9.779999732971191 C 44.74850082397461 -9.779999732971191 45.37500381469727 -9.193739891052246 45.37500381469727 -8.25 C 45.37500381469727 -7.809277057647705 45.23567581176758 -7.447312831878662 44.98262786865234 -7.187820434570312 C 45.45158767700195 -6.938927173614502 45.72000122070312 -6.477187156677246 45.72000122070312 -5.865000247955322 C 45.72000122070312 -5.106941699981689 45.33023452758789 -4.59058666229248 44.65105438232422 -4.408056735992432 C 44.95307922363281 -4.079055786132812 45.10500335693359 -3.619177103042603 45.10500335693359 -3.03000020980835 L 45.10500335693359 -0.9600000977516174 L 45.10500335693359 -0.7243039011955261 C 45.37154006958008 -0.4737228453159332 45.52500152587891 -0.108967699110508 45.52500152587891 0.3299998939037323 C 45.52500152587891 1.186539888381958 44.95977401733398 1.739999890327454 44.08500289916992 1.739999890327454 Z M 37.30178451538086 -9.779999732971191 L 38.89911651611328 -9.779999732971191 C 38.93924331665039 -9.930915832519531 38.99777603149414 -10.07139492034912 39.07322692871094 -10.19999980926514 L 37.13010787963867 -10.19999980926514 C 37.20450592041016 -10.07139492034912 37.2622184753418 -9.930915832519531 37.30178451538086 -9.779999732971191 Z M 30.22500228881836 1.739999890327454 L 29.62500190734863 1.739999890327454 L 27.00000190734863 1.739999890327454 L 26.85000228881836 1.739999890327454 L 26.25000190734863 1.739999890327454 L 23.70000267028809 1.739999890327454 L 23.10000228881836 1.739999890327454 L 23.10000228881836 1.139999866485596 L 23.10000228881836 0.8399999141693115 L 20.46000289916992 0.8399999141693115 L 19.74485206604004 0.8399999141693115 L 19.86913299560547 0.1357298791408539 C 19.96132659912109 -0.3866992294788361 19.99390983581543 -0.843622624874115 19.96712493896484 -1.233060002326965 C 19.69997406005859 -0.7517269253730774 19.39982223510742 -0.3379084765911102 19.06894302368164 0.004459885414689779 C 18.40790176391602 0.6884598731994629 17.64406204223633 1.049999833106995 16.8600025177002 1.049999833106995 C 15.79107189178467 1.049999833106995 14.9850025177002 0.2955098748207092 14.9850025177002 -0.705000102519989 C 14.9850025177002 -1.309710144996643 15.27920246124268 -1.863070130348206 15.85943222045898 -2.34971022605896 C 16.98628234863281 -3.306240081787109 17.4900016784668 -4.978620052337646 17.4900016784668 -7.769999980926514 L 17.4900016784668 -9.210000038146973 L 16.92000198364258 -9.210000038146973 C 15.63175201416016 -9.210000038146973 15.04500198364258 -10.16639041900635 15.04500198364258 -11.05500030517578 C 15.04500198364258 -11.95083045959473 15.63175201416016 -12.91499996185303 16.92000198364258 -12.91499996185303 L 21.91500282287598 -12.91499996185303 C 22.56313323974609 -12.91499996185303 22.97710418701172 -12.66677570343018 23.22958755493164 -12.41674995422363 C 23.49321365356445 -13.10591793060303 24.13853454589844 -13.54500007629395 24.97500228881836 -13.54500007629395 C 25.72912979125977 -13.54500007629395 26.32790756225586 -13.18806934356689 26.63166999816895 -12.61277770996094 C 26.9451789855957 -13.18854999542236 27.55439567565918 -13.54500007629395 28.32000160217285 -13.54500007629395 C 29.44164276123047 -13.54500007629395 30.22500228881836 -12.76780033111572 30.22500228881836 -11.65499973297119 L 30.22500228881836 1.139999866485596 L 30.22500228881836 1.739999890327454 Z M 22.45077133178711 -4.980443477630615 C 22.66827964782715 -4.721492767333984 22.85766410827637 -4.436995983123779 23.02051162719727 -4.125410079956055 C 23.04775810241699 -4.073276996612549 23.07428550720215 -4.020360946655273 23.10000228881836 -3.966850757598877 L 23.10000228881836 -4.965000152587891 L 22.72500228881836 -4.965000152587891 C 22.63119697570801 -4.965000152587891 22.53966522216797 -4.970233917236328 22.45077133178711 -4.980443477630615 Z M 21.3900032043457 -9.210000038146973 L 21.3900032043457 -8.257937431335449 C 21.72702026367188 -8.557206153869629 22.18782615661621 -8.730000495910645 22.72500228881836 -8.730000495910645 L 23.10000228881836 -8.730000495910645 L 23.10000228881836 -9.582967758178711 C 22.80844116210938 -9.35328483581543 22.41612434387207 -9.210000038146973 21.91500282287598 -9.210000038146973 L 21.3900032043457 -9.210000038146973 Z M 12.79500198364258 1.739999890327454 L 3.375002384185791 1.739999890327454 C 2.673872232437134 1.739999890327454 1.796932339668274 1.664929866790771 1.234282255172729 1.079519867897034 C 0.701792299747467 0.5254799127578735 0.6300022602081299 -0.285130113363266 0.6300022602081299 -1.005000114440918 L 0.6300022602081299 -2.055000066757202 C 0.6300022602081299 -2.625029325485229 0.8102389574050903 -3.094215154647827 1.137998819351196 -3.432585000991821 C 0.273867130279541 -3.663108110427856 -0.1199977099895477 -4.406833171844482 -0.1199977099895477 -5.144999980926514 C -0.1199977099895477 -5.928637027740479 0.3163194060325623 -6.718435287475586 1.278493523597717 -6.904151916503906 C 1.201468825340271 -6.963469982147217 1.129079580307007 -7.0303635597229 1.062242269515991 -7.105770111083984 C 0.628812313079834 -7.594759941101074 0.5400022864341736 -8.294620513916016 0.5400022864341736 -9.194999694824219 L 0.5400022864341736 -10.57499980926514 C 0.5400022864341736 -11.47537994384766 0.628812313079834 -12.1752405166626 1.062242269515991 -12.66423034667969 C 1.574432253837585 -13.24209022521973 2.412622213363647 -13.31999969482422 3.165002346038818 -13.31999969482422 L 11.83500194549561 -13.31999969482422 C 12.58738231658936 -13.31999969482422 13.42557239532471 -13.24209022521973 13.93776226043701 -12.66423034667969 C 14.37119197845459 -12.1752405166626 14.46000194549561 -11.47537994384766 14.46000194549561 -10.57499980926514 L 14.46000194549561 -7.050000190734863 L 14.46000194549561 -6.581130981445312 C 14.9099702835083 -6.235306262969971 15.12000274658203 -5.688678741455078 15.12000274658203 -5.144999980926514 C 15.12000274658203 -4.256510257720947 14.54951190948486 -3.360000133514404 13.27500247955322 -3.360000133514404 L 9.780002593994141 -3.360000133514404 L 9.780002593994141 -2.010000228881836 L 9.780002593994141 -1.770000100135803 L 12.79500198364258 -1.770000100135803 C 13.54051208496094 -1.770000100135803 13.97358226776123 -1.475320100784302 14.20561218261719 -1.228120088577271 C 14.49960231781006 -0.9148901104927063 14.65500259399414 -0.4954001009464264 14.65500259399414 -0.01500011421740055 C 14.65500259399414 0.4708798825740814 14.49637222290039 0.8936699032783508 14.19625186920166 1.207679867744446 C 13.96416187286377 1.450519919395447 13.53265190124512 1.739999890327454 12.79500198364258 1.739999890327454 Z M 4.905002117156982 -1.770000100135803 L 5.520002365112305 -1.770000100135803 L 5.520002365112305 -2.010000228881836 L 5.520002365112305 -3.360000133514404 L 4.472517013549805 -3.360000133514404 C 4.752209663391113 -3.028377532958984 4.905002117156982 -2.585297822952271 4.905002117156982 -2.055000066757202 L 4.905002117156982 -1.770000100135803 Z M 4.740002155303955 -9.795000076293945 L 10.26000213623047 -9.795000076293945 L 10.26000213623047 -9.975000381469727 L 4.740002155303955 -9.975000381469727 L 4.740002155303955 -9.795000076293945 Z M 51.04500198364258 1.454999923706055 C 48.08355331420898 1.454999923706055 46.17000198364258 -0.3643501102924347 46.17000198364258 -3.180000066757202 L 46.17000198364258 -8.685000419616699 C 46.17000198364258 -10.10179996490479 46.6563606262207 -11.28767967224121 47.57649230957031 -12.11443042755127 C 48.44334411621094 -12.893310546875 49.63754272460938 -13.30500030517578 51.03000259399414 -13.30500030517578 C 52.42480087280273 -13.30500030517578 53.62101364135742 -12.89578056335449 54.48930358886719 -12.12158966064453 C 55.41546249389648 -11.29580020904541 55.90500259399414 -10.10745048522949 55.90500259399414 -8.685000419616699 L 55.90500259399414 -3.180000066757202 C 55.90500259399414 -1.752190113067627 55.41651153564453 -0.5596601366996765 54.49234390258789 0.2686698734760284 C 53.62644195556641 1.044769883155823 52.43437194824219 1.454999923706055 51.04500198364258 1.454999923706055 Z M 51.05959320068359 -9.645319938659668 L 51.04304122924805 -9.645139694213867 C 50.68141174316406 -9.637280464172363 50.29500198364258 -9.408510208129883 50.29500198364258 -8.789999961853027 L 50.29500198364258 -3.075000047683716 C 50.29500198364258 -2.26774001121521 50.85758209228516 -2.205000162124634 51.03000259399414 -2.205000162124634 C 51.39982223510742 -2.205000162124634 51.79500198364258 -2.433550119400024 51.79500198364258 -3.075000047683716 L 51.79500198364258 -8.789999961853027 C 51.79500198364258 -9.380849838256836 51.42564392089844 -9.645319938659668 51.05959320068359 -9.645319938659668 Z" stroke="none"/>
    <path d="M 24.97500228881836 -12.94499969482422 C 24.18000411987305 -12.94499969482422 23.70000076293945 -12.4350004196167 23.70000076293945 -11.6850004196167 L 23.70000076293945 -8.130000114440918 L 22.72500228881836 -8.130000114440918 C 21.88500213623047 -8.130000114440918 21.3900032043457 -7.590000152587891 21.3900032043457 -6.840000152587891 C 21.3900032043457 -6.075000286102295 21.90000152587891 -5.565000057220459 22.72500228881836 -5.565000057220459 L 23.70000076293945 -5.565000057220459 L 23.70000076293945 1.140000343322754 L 26.25000381469727 1.140000343322754 L 26.25000381469727 -11.6850004196167 C 26.25000381469727 -12.4350004196167 25.77000045776367 -12.94499969482422 24.97500228881836 -12.94499969482422 M 28.32000350952148 -12.94499969482422 C 27.52500152587891 -12.94499969482422 27.00000381469727 -12.4350004196167 27.00000381469727 -11.65499973297119 L 27.00000381469727 1.140000343322754 L 29.62500381469727 1.140000343322754 L 29.62500381469727 -11.65499973297119 C 29.62500381469727 -12.4350004196167 29.1150016784668 -12.94499969482422 28.32000350952148 -12.94499969482422 M 58.5 -12.94499969482422 C 57.70500183105469 -12.94499969482422 57 -12.4350004196167 57 -11.46000003814697 L 57 1.140000343322754 L 60 1.140000343322754 L 60 -11.46000003814697 C 60 -12.4350004196167 59.29500198364258 -12.94499969482422 58.5 -12.94499969482422 M 32.6400032043457 -12.75 C 31.95000076293945 -12.75 31.60500335693359 -12.375 31.60500335693359 -11.77500057220459 C 31.60500335693359 -11.15999984741211 31.96500396728516 -10.80000019073486 32.6400032043457 -10.80000019073486 L 43.56000137329102 -10.80000019073486 C 44.23500061035156 -10.80000019073486 44.59500122070312 -11.15999984741211 44.59500122070312 -11.77500057220459 C 44.59500122070312 -12.375 44.25 -12.75 43.56000137329102 -12.75 L 32.6400032043457 -12.75 M 3.165000915527344 -12.72000026702881 C 1.455001831054688 -12.72000026702881 1.139999389648438 -12.22500038146973 1.139999389648438 -10.57499980926514 L 1.139999389648438 -9.194999694824219 C 1.139999389648438 -7.545000076293945 1.455001831054688 -7.050000190734863 3.165000915527344 -7.050000190734863 L 13.86000061035156 -7.050000190734863 L 13.86000061035156 -10.57499980926514 C 13.86000061035156 -12.22500038146973 13.54500198364258 -12.72000026702881 11.83499908447266 -12.72000026702881 L 3.165000915527344 -12.72000026702881 M 10.86000061035156 -9.194999694824219 L 4.485000610351562 -9.194999694824219 C 4.184989929199219 -9.194999694824219 4.139999389648438 -9.315000534057617 4.139999389648438 -9.494999885559082 L 4.139999389648438 -10.28999996185303 C 4.139999389648438 -10.44000053405762 4.170005798339844 -10.57499980926514 4.455001831054688 -10.57499980926514 L 10.54500579833984 -10.57499980926514 C 10.83000183105469 -10.57499980926514 10.86000061035156 -10.44000053405762 10.86000061035156 -10.28999996185303 L 10.86000061035156 -9.194999694824219 M 51.03000259399414 -12.70499992370605 C 48.56999969482422 -12.70499992370605 46.77000427246094 -11.27999973297119 46.77000427246094 -8.685000419616699 L 46.77000427246094 -3.180000305175781 C 46.77000427246094 -0.5550003051757812 48.58500289916992 0.8549995422363281 51.04500198364258 0.8549995422363281 C 53.4900016784668 0.8549995422363281 55.30500030517578 -0.5550003051757812 55.30500030517578 -3.180000305175781 L 55.30500030517578 -8.685000419616699 C 55.30500030517578 -11.29500007629395 53.4900016784668 -12.70499992370605 51.03000259399414 -12.70499992370605 M 51.03000259399414 -1.605000495910645 C 50.34000396728516 -1.605000495910645 49.69499969482422 -2.085000038146973 49.69499969482422 -3.074999809265137 L 49.69499969482422 -8.789999961853027 C 49.69499969482422 -9.735000610351562 50.34000396728516 -10.23000049591064 51.03000259399414 -10.24499988555908 C 51.71995162963867 -10.2599925994873 52.39500427246094 -9.750001907348633 52.39500427246094 -8.789999961853027 L 52.39500427246094 -3.074999809265137 C 52.39500427246094 -2.085000038146973 51.72000122070312 -1.605000495910645 51.03000259399414 -1.605000495910645 M 63.51000213623047 -12.70499992370605 C 62.59500122070312 -12.70499992370605 62.25 -12.18000030517578 62.25 -11.57999992370605 C 62.25 -10.96500015258789 62.61000061035156 -10.48500061035156 63.51000213623047 -10.48500061035156 L 67.33499908447266 -10.48500061035156 C 66.84000396728516 -9.675000190734863 65.12999725341797 -9.344999313354492 63.28500366210938 -9.465000152587891 C 62.45999145507812 -9.539998054504395 61.98000335693359 -9.045000076293945 61.98000335693359 -8.369999885559082 C 61.98000335693359 -7.559999942779541 62.55000305175781 -7.170000076293945 63.48000335693359 -7.125 C 65.69998168945312 -7.050004005432129 67.51499938964844 -7.46999979019165 68.71500396728516 -8.265000343322754 C 70.41000366210938 -8.550000190734863 71.97000122070312 -8.220000267028809 72.54000091552734 -7.170000076293945 L 75.56999969482422 -7.170000076293945 C 75.16500091552734 -9.360000610351562 73.00499725341797 -10.27499961853027 70.125 -9.960000038146973 C 70.18498992919922 -10.125 70.23000335693359 -10.30500030517578 70.26000213623047 -10.48500061035156 L 73.88999938964844 -10.48500061035156 C 74.79000091552734 -10.48500061035156 75.15000152587891 -10.96500015258789 75.15000152587891 -11.57999992370605 C 75.15000152587891 -12.18000030517578 74.80500030517578 -12.70499992370605 73.88999938964844 -12.70499992370605 L 63.51000213623047 -12.70499992370605 M 16.92000198364258 -12.31500053405762 C 16.00500106811523 -12.31500053405762 15.64500045776367 -11.65499973297119 15.64500045776367 -11.05500030517578 C 15.64500045776367 -10.44000053405762 16.02000045776367 -9.810000419616699 16.92000198364258 -9.810000419616699 L 18.09000396728516 -9.810000419616699 L 18.09000396728516 -7.770000457763672 C 18.09000396728516 -4.845000267028809 17.53500366210938 -2.984999656677246 16.24500274658203 -1.890000343322754 C 15.78000259399414 -1.5 15.58500289916992 -1.109999656677246 15.58500289916992 -0.7049999237060547 C 15.58500289916992 -0.01500034332275391 16.15500259399414 0.4499998092651367 16.86000061035156 0.4499998092651367 C 18.12000274658203 0.4499998092651367 19.29000091552734 -0.7650003433227539 20.01000213623047 -2.805000305175781 C 20.50500106811523 -2.234999656677246 20.73000335693359 -1.289999961853027 20.46000289916992 0.2399997711181641 L 23.13000106811523 0.2399997711181641 C 23.35500335693359 -3.52500057220459 22.02000045776367 -4.934999942779541 20.65500259399414 -5.640000343322754 C 20.74500274658203 -6.315000057220459 20.79000091552734 -7.050000190734863 20.79000091552734 -7.815000057220459 L 20.79000091552734 -9.810000419616699 L 21.91500091552734 -9.810000419616699 C 22.81500244140625 -9.810000419616699 23.16000366210938 -10.44000053405762 23.16000366210938 -11.05500030517578 C 23.16000366210938 -11.65499973297119 22.83000183105469 -12.31500053405762 21.91500091552734 -12.31500053405762 L 16.92000198364258 -12.31500053405762 M 35.25000381469727 -10.51500034332275 C 34.33500289916992 -10.51500034332275 33.70500183105469 -10.11000061035156 33.70500183105469 -9.270000457763672 L 33.70500183105469 -9.180000305175781 L 32.46000289916992 -9.180000305175781 C 31.77000045776367 -9.180000305175781 31.42500305175781 -8.850000381469727 31.42500305175781 -8.25 C 31.42500305175781 -7.635000228881836 31.78500366210938 -7.335000038146973 32.46000289916992 -7.335000038146973 L 43.7400016784668 -7.335000038146973 C 44.41500091552734 -7.335000038146973 44.77500152587891 -7.635000228881836 44.77500152587891 -8.25 C 44.77500152587891 -8.850000381469727 44.43000030517578 -9.180000305175781 43.7400016784668 -9.180000305175781 L 42.49500274658203 -9.180000305175781 L 42.49500274658203 -9.270000457763672 C 42.49500274658203 -10.09500026702881 41.88000106811523 -10.51500034332275 40.98000335693359 -10.51500034332275 C 40.06500244140625 -10.51500034332275 39.43500137329102 -10.11000061035156 39.43500137329102 -9.270000457763672 L 39.43500137329102 -9.180000305175781 L 36.7650032043457 -9.180000305175781 L 36.7650032043457 -9.270000457763672 C 36.7650032043457 -10.09500026702881 36.15000152587891 -10.51500034332275 35.25000381469727 -10.51500034332275 M 32.14500045776367 -6.795000076293945 C 31.44000244140625 -6.795000076293945 31.08000183105469 -6.480000019073486 31.08000183105469 -5.865000247955322 C 31.08000183105469 -5.235000133514404 31.45500183105469 -4.934999942779541 32.14500045776367 -4.934999942779541 L 36.57000350952148 -4.934999942779541 L 36.57000350952148 -4.425000190734863 L 32.50500106811523 -4.425000190734863 C 31.90500259399414 -4.425000190734863 31.65000152587891 -4.050000190734863 31.65000152587891 -3.614999771118164 C 31.65000152587891 -3.180000305175781 31.95000076293945 -2.805000305175781 32.50500106811523 -2.805000305175781 L 41.19000244140625 -2.805000305175781 C 41.35500335693359 -2.805000305175781 41.41500091552734 -2.744999885559082 41.41500091552734 -2.609999656677246 L 41.41500091552734 -2.340000152587891 L 33.3900032043457 -2.340000152587891 C 32.08500289916992 -2.340000152587891 31.50000381469727 -1.635000228881836 31.50000381469727 -0.6599998474121094 L 31.50000381469727 -0.6149997711181641 C 31.50000381469727 0.3599996566772461 32.10000228881836 1.140000343322754 33.3900032043457 1.140000343322754 L 44.08500289916992 1.140000343322754 C 44.71500396728516 1.140000343322754 44.92500305175781 0.7650003433227539 44.92500305175781 0.3299999237060547 C 44.92500305175781 -0.1050004959106445 44.70000457763672 -0.494999885559082 44.08500289916992 -0.494999885559082 L 34.95000076293945 -0.494999885559082 C 34.80000305175781 -0.494999885559082 34.72500228881836 -0.6149997711181641 34.72500228881836 -0.7200002670288086 C 34.72500228881836 -0.8400001525878906 34.80000305175781 -0.9600000381469727 34.95000076293945 -0.9600000381469727 L 44.5050048828125 -0.9600000381469727 L 44.5050048828125 -3.029999732971191 C 44.5050048828125 -3.945000171661377 44.10000228881836 -4.425000190734863 42.82500076293945 -4.425000190734863 L 39.63000106811523 -4.425000190734863 L 39.63000106811523 -4.934999942779541 L 44.05500411987305 -4.934999942779541 C 44.74500274658203 -4.934999942779541 45.12000274658203 -5.235000133514404 45.12000274658203 -5.865000247955322 C 45.12000274658203 -6.480000019073486 44.76000213623047 -6.795000076293945 44.05500411987305 -6.795000076293945 L 32.14500045776367 -6.795000076293945 M 62.8650016784668 -6.795000076293945 C 62.04000091552734 -6.795000076293945 61.68000030517578 -6.285000324249268 61.68000030517578 -5.670000076293945 C 61.68000030517578 -5.039999961853027 62.05500030517578 -4.559999942779541 62.8650016784668 -4.559999942779541 L 67.16999816894531 -4.559999942779541 L 67.16999816894531 -3.765000343322754 L 64.94998931884766 -3.765000343322754 C 63 -3.765000343322754 62.10000228881836 -2.77500057220459 62.10000228881836 -1.289999961853027 C 62.10000228881836 0.1949996948242188 63 1.184999465942383 64.94998931884766 1.184999465942383 L 72.45000457763672 1.184999465942383 C 74.40000152587891 1.184999465942383 75.30000305175781 0.1949996948242188 75.30000305175781 -1.289999961853027 C 75.30000305175781 -2.77500057220459 74.40000152587891 -3.765000343322754 72.45000457763672 -3.765000343322754 L 70.23000335693359 -3.765000343322754 L 70.23000335693359 -4.559999942779541 L 74.53500366210938 -4.559999942779541 C 75.34500122070312 -4.559999942779541 75.72000122070312 -5.039999961853027 75.72000122070312 -5.670000076293945 C 75.72000122070312 -6.285000324249268 75.36000061035156 -6.795000076293945 74.53500366210938 -6.795000076293945 L 62.8650016784668 -6.795000076293945 M 71.58000183105469 -0.7950000762939453 L 65.81999969482422 -0.7950000762939453 C 65.34000396728516 -0.7950000762939453 65.14500427246094 -0.9899997711181641 65.14500427246094 -1.289999961853027 C 65.14500427246094 -1.590000152587891 65.34000396728516 -1.784999847412109 65.81999969482422 -1.784999847412109 L 71.58000183105469 -1.784999847412109 C 72.05998992919922 -1.784999847412109 72.2550048828125 -1.590000152587891 72.2550048828125 -1.289999961853027 C 72.2550048828125 -0.9899997711181641 72.05998992919922 -0.7950000762939453 71.58000183105469 -0.7950000762939453 M 1.724998474121094 -6.345000267028809 C 0.8399887084960938 -6.345000267028809 0.4800033569335938 -5.760000228881836 0.4800033569335938 -5.144999980926514 C 0.4800033569335938 -4.515000343322754 0.8550033569335938 -3.960000038146973 1.724998474121094 -3.960000038146973 L 6.120002746582031 -3.960000038146973 L 6.120002746582031 -2.010000228881836 L 9.180000305175781 -2.010000228881836 L 9.180000305175781 -3.960000038146973 L 13.27500152587891 -3.960000038146973 C 14.14500045776367 -3.960000038146973 14.52000045776367 -4.515000343322754 14.52000045776367 -5.144999980926514 C 14.52000045776367 -5.760000228881836 14.16000366210938 -6.345000267028809 13.27500152587891 -6.345000267028809 L 1.724998474121094 -6.345000267028809 M 2.790000915527344 -3.435000419616699 C 1.949989318847656 -3.435000419616699 1.230003356933594 -3.060000419616699 1.230003356933594 -2.055000305175781 L 1.230003356933594 -1.005000114440918 C 1.230003356933594 0.5850000381469727 1.680000305175781 1.140000343322754 3.375 1.140000343322754 L 12.79500198364258 1.140000343322754 C 13.69500350952148 1.140000343322754 14.05500411987305 0.5999994277954102 14.05500411987305 -0.01500034332275391 C 14.05500411987305 -0.6149997711181641 13.71000289916992 -1.170000076293945 12.79500198364258 -1.170000076293945 L 4.709999084472656 -1.170000076293945 C 4.379989624023438 -1.170000076293945 4.305000305175781 -1.215000152587891 4.305000305175781 -1.529999732971191 L 4.305000305175781 -2.055000305175781 C 4.305000305175781 -3.045000076293945 3.629989624023438 -3.435000419616699 2.790000915527344 -3.435000419616699 M 24.97500228881836 -14.14500045776367 C 25.63218688964844 -14.14500045776367 26.20688247680664 -13.92766952514648 26.63658905029297 -13.55510520935059 C 27.07320785522461 -13.92789459228516 27.65505599975586 -14.14500045776367 28.32000350952148 -14.14500045776367 C 29.37372207641602 -14.14500045776367 30.21772384643555 -13.59305095672607 30.60116195678711 -12.73857879638672 C 30.72172546386719 -13.0053882598877 30.8802375793457 -13.20407390594482 31.02460098266602 -13.34529972076416 C 31.30659103393555 -13.62116718292236 31.81575775146484 -13.94999980926514 32.6400032043457 -13.94999980926514 L 43.56000137329102 -13.94999980926514 C 44.38424682617188 -13.94999980926514 44.89341354370117 -13.62116718292236 45.17539978027344 -13.34529972076416 C 45.45805740356445 -13.06878852844238 45.79500198364258 -12.57190036773682 45.79500198364258 -11.77500057220459 C 45.79500198364258 -10.96692276000977 45.44984436035156 -10.46700000762939 45.16030120849609 -10.18991088867188 C 45.11530303955078 -10.14684295654297 45.06455230712891 -10.10245609283447 45.0077018737793 -10.05826759338379 C 45.25530242919922 -9.911152839660645 45.46214294433594 -9.717177391052246 45.62013244628906 -9.48409366607666 C 45.9642333984375 -12.15979862213135 48.05144500732422 -13.90500068664551 51.03000259399414 -13.90500068664551 C 53.20245361328125 -13.90500068664551 54.9019775390625 -12.98186683654785 55.80000305175781 -11.44881439208984 L 55.80000305175781 -11.46000003814697 C 55.80000305175781 -12.25435543060303 56.10072326660156 -12.96392250061035 56.64678192138672 -13.45796680450439 C 57.13645935058594 -13.90101146697998 57.79461288452148 -14.14500045776367 58.5 -14.14500045776367 C 59.20539093017578 -14.14500045776367 59.86354827880859 -13.90101146697998 60.35322570800781 -13.45796680450439 C 60.73157119750977 -13.11565780639648 60.99215316772461 -12.66982746124268 61.11651992797852 -12.16407203674316 C 61.21034622192383 -12.56326293945312 61.40140151977539 -12.9212007522583 61.67670440673828 -13.20422267913818 C 61.98767852783203 -13.52391147613525 62.55817031860352 -13.90500068664551 63.51000213623047 -13.90500068664551 L 73.88999938964844 -13.90500068664551 C 74.84183502197266 -13.90500068664551 75.41232299804688 -13.52391147613525 75.72330474853516 -13.20422267913818 C 76.12743377685547 -12.78875541687012 76.35000610351562 -12.21193313598633 76.35000610351562 -11.57999992370605 C 76.35000610351562 -10.89385414123535 76.07563781738281 -10.20403480529785 75.48820495605469 -9.762463569641113 C 76.13884735107422 -9.143396377563477 76.57356262207031 -8.342250823974609 76.74999237060547 -7.388211250305176 L 77.01226806640625 -5.970000267028809 L 76.90377807617188 -5.970000267028809 C 76.91450500488281 -5.872491359710693 76.92000579833984 -5.772351741790771 76.92000579833984 -5.670000076293945 C 76.92000579833984 -4.745979785919189 76.46731567382812 -4.011273860931396 75.73670196533203 -3.635144233703613 C 76.23094940185547 -3.028717994689941 76.5 -2.233725547790527 76.5 -1.289999961853027 C 76.5 0.9768218994140625 74.94813537597656 2.385000228881836 72.45000457763672 2.385000228881836 L 64.94998931884766 2.385000228881836 C 63.09698486328125 2.385000228881836 61.76457214355469 1.610107421875 61.20000457763672 0.2848024368286133 L 61.20000457763672 2.340000152587891 L 55.80000305175781 2.340000152587891 L 55.80000305175781 -0.4049358367919922 C 54.90392303466797 1.130491256713867 53.20990371704102 2.055000305175781 51.04500198364258 2.055000305175781 C 49.49929046630859 2.055000305175781 48.16458892822266 1.592133522033691 47.1851692199707 0.7164554595947266 C 46.43001937866211 0.04128360748291016 45.92927551269531 -0.8396024703979492 45.70500183105469 -1.872883796691895 L 45.70500183105469 -0.9615802764892578 C 45.97272872924805 -0.6207246780395508 46.125 -0.1780185699462891 46.125 0.3299999237060547 C 46.125 1.513455390930176 45.28612518310547 2.340000152587891 44.08500289916992 2.340000152587891 L 33.3900032043457 2.340000152587891 C 32.20864486694336 2.340000152587891 31.49544525146484 1.866355895996094 31.10515594482422 1.469021797180176 C 31.00251388549805 1.364521980285645 30.90900802612305 1.251782417297363 30.82500076293945 1.131801605224609 L 30.82500076293945 2.340000152587891 L 22.50000381469727 2.340000152587891 L 22.50000381469727 1.439999580383301 L 19.02968978881836 1.439999580383301 L 19.15159225463867 0.7492208480834961 C 18.45608901977539 1.340217590332031 17.67174911499023 1.649999618530273 16.86000061035156 1.649999618530273 C 16.15108108520508 1.649999618530273 15.52063369750977 1.38010311126709 15.07344818115234 0.9400253295898438 C 14.72053909301758 1.796152114868164 13.88042831420898 2.340000152587891 12.79500198364258 2.340000152587891 L 3.375 2.340000152587891 C 2.554901123046875 2.340000152587891 1.521278381347656 2.243988990783691 0.8016891479492188 1.495288848876953 C 0.1177139282226562 0.7836332321166992 0.029998779296875 -0.2147331237792969 0.029998779296875 -1.005000114440918 L 0.029998779296875 -2.055000305175781 C 0.029998779296875 -2.471877098083496 0.1109771728515625 -2.851877212524414 0.2616806030273438 -3.184391975402832 C 0.1141510009765625 -3.286253929138184 -0.00601959228515625 -3.39543628692627 -0.102020263671875 -3.498544692993164 C -0.5005340576171875 -3.926578044891357 -0.720001220703125 -4.511300086975098 -0.720001220703125 -5.144999980926514 C -0.720001220703125 -5.76894474029541 -0.5075225830078125 -6.348877906799316 -0.1217117309570312 -6.777966976165771 C -0.0118865966796875 -6.900106906890869 0.1298065185546875 -7.030465126037598 0.308349609375 -7.148384571075439 C -0.02642059326171875 -7.778756141662598 -0.05999755859375 -8.523850440979004 -0.05999755859375 -9.194999694824219 L -0.05999755859375 -10.57499980926514 C -0.05999755859375 -11.410888671875 -0.00797271728515625 -12.36136722564697 0.6132354736328125 -13.06222248077393 C 1.283210754394531 -13.81808853149414 2.279136657714844 -13.92000007629395 3.165000915527344 -13.92000007629395 L 11.83499908447266 -13.92000007629395 C 12.72086715698242 -13.92000007629395 13.71679306030273 -13.81808853149414 14.38676834106445 -13.06222248077393 C 14.57198715209961 -12.85325717926025 14.70661163330078 -12.62209129333496 14.80433654785156 -12.37839889526367 C 15.19718170166016 -13.03544235229492 15.9084358215332 -13.51500034332275 16.92000198364258 -13.51500034332275 L 21.91500091552734 -13.51500034332275 C 22.32426452636719 -13.51500034332275 22.70506286621094 -13.43129825592041 23.03902053833008 -13.27209091186523 C 23.48147201538086 -13.81546592712402 24.16559982299805 -14.14500045776367 24.97500228881836 -14.14500045776367 Z M 61.54528045654297 -10.11627769470215 C 61.39570999145508 -10.30139827728271 61.28108596801758 -10.50831604003906 61.20000457763672 -10.726975440979 L 61.20000457763672 -9.737795829772949 C 61.29973602294922 -9.877540588378906 61.41548538208008 -10.00434398651123 61.54528045654297 -10.11627769470215 Z M 31.19230270385742 -10.05826759338379 C 31.13545227050781 -10.10245609283447 31.0847053527832 -10.14684295654297 31.03970336914062 -10.18991088867188 C 30.96950912475586 -10.25708675384521 30.89602279663086 -10.33738613128662 30.82500076293945 -10.43197059631348 L 30.82500076293945 -9.777143478393555 C 30.93445587158203 -9.883962631225586 31.05728530883789 -9.978045463562012 31.19230270385742 -10.05826759338379 Z M 16.8900032043457 -8.610140800476074 C 16.08373260498047 -8.617687225341797 15.47062683105469 -8.929773330688477 15.06000137329102 -9.391565322875977 L 15.06000137329102 -6.843852996826172 C 15.08159637451172 -6.821708679199219 15.10215377807617 -6.799708843231201 15.1217041015625 -6.777966976165771 C 15.50752639770508 -6.348877906799316 15.72000122070312 -5.76894474029541 15.72000122070312 -5.144999980926514 C 15.72000122070312 -4.511300086975098 15.50053405761719 -3.926578044891357 15.10202407836914 -3.498544692993164 C 14.78833389282227 -3.161622047424316 14.21673583984375 -2.760000228881836 13.27500152587891 -2.760000228881836 L 10.3800048828125 -2.760000228881836 L 10.3800048828125 -2.369999885559082 L 12.79500198364258 -2.369999885559082 C 13.53282165527344 -2.369999885559082 14.15731048583984 -2.11868953704834 14.59245681762695 -1.688838958740234 C 14.77103424072266 -2.091525077819824 15.06442260742188 -2.465388298034668 15.47080612182617 -2.806861877441406 C 16.43906021118164 -3.630649566650391 16.8900032043457 -5.207845687866211 16.8900032043457 -7.770000457763672 L 16.8900032043457 -8.610140800476074 Z M 51.03000259399414 -2.805000305175781 C 51.11112213134766 -2.805000305175781 51.19499969482422 -2.805000305175781 51.19499969482422 -3.074999809265137 L 51.19499969482422 -8.789999961853027 C 51.19499969482422 -9.045322418212891 51.10011291503906 -9.045322418212891 51.05959320068359 -9.045322418212891 C 50.97689056396484 -9.043566703796387 50.89500427246094 -9.041777610778809 50.89500427246094 -8.789999961853027 L 50.89500427246094 -3.074999809265137 C 50.89500427246094 -2.805000305175781 50.96363830566406 -2.805000305175781 51.03000259399414 -2.805000305175781 Z M 61.66329956054688 -3.63514518737793 C 61.49303817749023 -3.722799301147461 61.33786392211914 -3.829923629760742 61.20000457763672 -3.95438289642334 L 61.20000457763672 -2.864802360534668 C 61.32032012939453 -3.147246360778809 61.47562789916992 -3.404878616333008 61.66329956054688 -3.63514518737793 Z" stroke="none" fill="#3377d6"/>
  </g>
</svg>
